:version 1.10
:name ASF
:units
  mass 1
  length 1
  angle deg
:documentation
  ASF file generated by Kaydara
:root
  axis xyz
  order  tx ty tz rx ry rz
  position 0 0 0
  orientation 0 0 0
:bonedata
  begin
    id 1
    name RightUpLegDummy
    direction -1 2.30186e-007 8.31532e-007
    length 4.04083
    axis 0 0 0 xyz
  end
  begin
    id 2
    name RightUpLeg
    direction -0.000919234 -0.999985 0.00544864
    length 17.4221
    axis -3.80308 -0.00076134 -0.0523649 xyz
    dof rx ry rz
  end
  begin
    id 3
    name RightLeg
    direction -0.000919271 -0.999984 -0.00555045
    length 17.1239
    axis 4.00314 0.0181274 -0.183583 xyz
    dof rx ry rz
  end
  begin
    id 4
    name RightFoot
    direction -2.57843e-005 -4.04509e-007 1
    length 6.72091
    axis 8.18909e-005 -0.122003 -0.403008 xyz
    dof rx ry rz
  end
  begin
    id 5
    name RightToes
    direction 0.00116825 -0.014069 0.9999
    length 3.85082
    axis 0.000514414 0.540638 -0.356797 xyz
    dof rx ry rz
  end
  begin
    id 6
    name SpineDummy
    direction 0.0168869 0.966876 -0.254689
    length 6.99894
    axis 0 0 0 xyz
  end
  begin
    id 7
    name Spine
    direction -0.0132008 0.999903 0.00446247
    length 11.1999
    axis -0.00148109 0.00725429 0.756411 xyz
    dof rx ry rz
  end
  begin
    id 8
    name Spine1
    direction 0 0 0
    length 0
    axis -0.000934958 0.0245693 1.46543 xyz
    dof rx ry rz
  end
  begin
    id 9
    name HEadDummy
    direction -0.0255732 0.999672 0.00128215
    length 3.43865
    axis -0.000934958 0.0245693 1.46543 xyz
  end
  begin
    id 10
    name HEad
    direction -0.0472656 0.980052 0.19304
    length 5.12695
    axis -0.000934954 0.0245693 1.46543 xyz
    dof rx ry rz
  end
  begin
    id 11
    name LeftShoulder1Dummy
    direction 0.953098 0.301717 -0.023914
    length 3.68488
    axis -0.000934958 0.0245693 1.46543 xyz
  end
  begin
    id 12
    name LeftShoulder1
    direction 0.962466 0.271167 0.0112566
    length 3.13809
    axis -0.000934958 0.0245693 1.46543 xyz
    dof rx ry rz
  end
  begin
    id 13
    name LeftArm
    direction 0.999943 0.00455037 -0.00961766
    length 11.3419
    axis -23.1648 0.685459 1.22814 xyz
    dof rx ry rz
  end
  begin
    id 14
    name LeftForeArm
    direction 0.999332 0.0131969 0.0340885
    length 8.70632
    axis -9.90633 0.618216 0.0826942 xyz
    dof rx ry rz
  end
  begin
    id 15
    name LeftHand
    direction 0.994373 -0.0366703 0.0993905
    length 5.32135
    axis 0.00675269 0.680415 0.445699 xyz
    dof rx ry rz
  end
  begin
    id 16
    name RightShoulderDummy
    direction -0.967298 0.252589 -0.0230903
    length 3.68488
    axis -0.000934958 0.0245693 1.46543 xyz
  end
  begin
    id 17
    name RightShoulder
    direction -0.975062 0.221602 0.0120823
    length 3.13809
    axis 0.216257 0.0246515 1.45863 xyz
    dof rx ry rz
  end
  begin
    id 18
    name RightArm
    direction -0.99886 -0.00851186 -0.0469687
    length 10.3947
    axis -23.196 0.23503 -0.532632 xyz
    dof rx ry rz
  end
  begin
    id 19
    name RightForeArm
    direction -0.99909 0.00114866 0.0426317
    length 8.68355
    axis -9.91764 -0.134943 0.610517 xyz
    dof rx ry rz
  end
  begin
    id 20
    name RightHand
    direction -0.992888 -0.0489538 0.10852
    length 5.28593
    axis -0.00275396 -0.197403 0.246414 xyz
    dof rx ry rz
  end
  begin
    id 21
    name LeftUpLegDummy
    direction 1 -2.30186e-007 -8.31532e-007
    length 4.04083
    axis 0 0 0 xyz
  end
  begin
    id 22
    name LeftUpLeg
    direction -0.000920097 -1 2.79241e-006
    length 17.4221
    axis -3.48782 0.00143434 -0.0532288 xyz
    dof rx ry rz
  end
  begin
    id 23
    name LeftLeg
    direction -0.000920097 -1 2.7912e-006
    length 17.1239
    axis 3.68162 -0.00806512 -0.0529896 xyz
    dof rx ry rz
  end
  begin
    id 24
    name LeftFoot
    direction -2.57845e-005 -3.987e-007 1
    length 6.72091
    axis 3.02372e-005 -0.00147829 -0.214229 xyz
    dof rx ry rz
  end
  begin
    id 25
    name LeftToes
    direction 0.00813577 -0.00488255 0.999955
    length 3.85048
    axis 3.89895e-005 -0.0014783 -0.214229 xyz
    dof rx ry rz
  end
:hierarchy
  begin
    root RightUpLegDummy SpineDummy LeftUpLegDummy
    RightUpLegDummy RightUpLeg
    RightUpLeg RightLeg
    RightLeg RightFoot
    RightFoot RightToes
    SpineDummy Spine
    Spine Spine1
    Spine1 HEadDummy LeftShoulder1Dummy RightShoulderDummy
    HEadDummy HEad
    LeftShoulder1Dummy LeftShoulder1
    LeftShoulder1 LeftArm
    LeftArm LeftForeArm
    LeftForeArm LeftHand
    RightShoulderDummy RightShoulder
    RightShoulder RightArm
    RightArm RightForeArm
    RightForeArm RightHand
    LeftUpLegDummy LeftUpLeg
    LeftUpLeg LeftLeg
    LeftLeg LeftFoot
    LeftFoot LeftToes
  end

:SAMPLES-PER-SECOND 30
:FULLY-SPECIFIED
:DEGREES
106
root  -10.346 34.7294 -12.574 -171.56 8.43399 -179.629
RightUpLeg  -3.65504 -13.8267 -2.41842
RightLeg  0.476224 -2.18484 0.122698
RightFoot  7.05145 0.0469224 -0.119043
RightToes  -27.0315 -0.117119 -0.230814
Spine  -2.83808 0.387376 -0.617914
Spine1  -5.54936 0.493175 -0.251593
HEad  -61.6674 5.76903 10.8301
LeftShoulder1  -1.94126e-019 -3.10601e-018 -2.51263e-017
LeftArm  -9.94996 26.4856 -76.7186
LeftForeArm  34.5495 -19.7758 -3.29085
LeftHand  -0.348859 -0.853694 6.61022
RightShoulder  -4.96962e-017 0 -2.36833e-017
RightArm  -30.2574 -0.818682 48.8429
RightForeArm  -122.183 54.5749 170.043
RightHand  -3.4921 6.44443 -33.597
LeftUpLeg  -3.29179 4.77155 3.90045
LeftLeg  0.0431266 14.5639 -0.916139
LeftFoot  7.93604 -0.150806 2.2221
LeftToes  -26.0109 2.14545e-006 -7.7278e-009
107
root  -10.3446 34.7324 -12.5674 -171.615 8.00763 -179.685
RightUpLeg  -3.55498 -14.1177 -2.45822
RightLeg  0.491702 -2.32485 0.129928
RightFoot  7.02932 0.0465488 -0.130983
RightToes  -27.1295 -0.117119 -0.231528
Spine  -2.76893 0.513901 -0.65156
Spine1  -5.42774 0.790959 -0.334308
HEad  -61.8569 5.27757 10.8547
LeftShoulder1  -1.94126e-019 -3.10601e-018 -2.51263e-017
LeftArm  -10.0112 26.3769 -76.5257
LeftForeArm  33.6699 -20.6768 -3.37589
LeftHand  -0.351803 -0.860154 6.65884
RightShoulder  -4.96962e-017 0 -2.36833e-017
RightArm  -35.0986 -3.10556 51.4841
RightForeArm  -129.989 53.5711 170.172
RightHand  -2.83568 4.64821 -32.2368
LeftUpLeg  -3.31887 4.57244 3.88305
LeftLeg  0.000985701 14.3366 -0.912617
LeftFoot  8.04029 -0.151159 2.21732
LeftToes  -26.1298 2.14545e-006 -7.7278e-009
108
root  -10.3514 34.7346 -12.548 -171.646 7.23735 -179.757
RightUpLeg  -3.47185 -14.5949 -2.50325
RightLeg  0.568989 -2.59185 0.141353
RightFoot  6.93702 0.0468705 -0.153519
RightToes  -27.0607 -0.117119 -0.231573
Spine  -2.73665 0.55613 -0.687431
Spine1  -5.38659 0.932433 -0.433658
HEad  -61.7652 4.77862 10.7227
LeftShoulder1  -1.94126e-019 -3.10601e-018 -2.51263e-017
LeftArm  -9.28776 26.4274 -76.2317
LeftForeArm  32.2376 -21.842 -3.47542
LeftHand  -0.329948 -0.733245 6.36976
RightShoulder  -4.96962e-017 0 -2.36833e-017
RightArm  -42.4812 -5.52803 55.2832
RightForeArm  -139.809 53.7694 169.651
RightHand  -1.97326 2.05734 -30.3155
LeftUpLeg  -3.45787 4.10063 3.85975
LeftLeg  -0.0288727 14.0335 -0.90098
LeftFoot  8.11961 -0.150175 2.19429
LeftToes  -26.0897 2.14545e-006 -7.7278e-009
109
root  -10.3593 34.738 -12.5259 -171.683 6.41615 -179.814
RightUpLeg  -3.3737 -14.9744 -2.53663
RightLeg  0.647378 -3.00305 0.159662
RightFoot  6.85085 0.0484167 -0.194223
RightToes  -26.9268 -0.117119 -0.231515
Spine  -2.7286 0.51444 -0.712396
Spine1  -5.38896 0.889337 -0.509037
HEad  -61.2657 4.41032 10.3684
LeftShoulder1  -1.94126e-019 -3.10601e-018 -2.51263e-017
LeftArm  -8.44276 26.4699 -76.035
LeftForeArm  31.6286 -22.4056 -3.49777
LeftHand  -0.328376 -0.795921 6.28102
RightShoulder  -4.96962e-017 0 -2.36833e-017
RightArm  -46.6117 -8.62424 58.7742
RightForeArm  -150.778 55.9042 168.108
RightHand  -0.559001 -3.48872 -33.4833
LeftUpLeg  -3.59846 3.5264 3.85623
LeftLeg  -0.0583547 13.7846 -0.892367
LeftFoot  8.22411 -0.149744 2.18303
LeftToes  -26.1562 2.14545e-006 -7.7278e-009
110
root  -10.358 34.7374 -12.5049 -171.713 5.79489 -179.858
RightUpLeg  -3.31716 -15.2929 -2.54984
RightLeg  0.731867 -3.28753 0.169937
RightFoot  6.77699 0.0490209 -0.222143
RightToes  -26.9515 -0.117119 -0.231361
Spine  -2.73075 0.410271 -0.71189
Spine1  -5.40108 0.694706 -0.516318
HEad  -60.741 4.29026 10.0564
LeftShoulder1  -1.94126e-019 -3.10601e-018 -2.51263e-017
LeftArm  -8.32802 26.4438 -76.1461
LeftForeArm  31.6495 -22.2016 -3.43235
LeftHand  -0.325465 -0.882846 6.14734
RightShoulder  -4.96962e-017 0 -2.36833e-017
RightArm  -45.3344 -12.1782 60.9944
RightForeArm  -163.624 60.1127 164.981
RightHand  1.19852 -8.68948 -39.9737
LeftUpLeg  -3.71996 3.17343 3.86474
LeftLeg  -0.0648961 13.5287 -0.87765
LeftFoot  8.30516 -0.148521 2.16317
LeftToes  -26.3606 2.14545e-006 -7.7278e-009
111
root  -10.355 34.7353 -12.487 -171.711 5.39301 -179.877
RightUpLeg  -3.34081 -15.508 -2.53573
RightLeg  0.850567 -3.46655 0.172017
RightFoot  6.68557 0.0486023 -0.236127
RightToes  -26.8749 -0.117119 -0.23112
Spine  -2.67064 0.298647 -0.690077
Spine1  -5.29553 0.498821 -0.484476
HEad  -60.4777 4.5345 9.74579
LeftShoulder1  -1.94126e-019 -3.10601e-018 -2.51263e-017
LeftArm  -8.50963 26.2843 -76.4329
LeftForeArm  31.4689 -21.4532 -3.30972
LeftHand  -0.292061 -0.648341 5.7199
RightShoulder  -4.96962e-017 0 -2.36833e-017
RightArm  -42.7094 -16.1319 62.3535
RightForeArm  179.928 66.0904 158.959
RightHand  1.38542 -9.39355 -38.3058
LeftUpLeg  -3.84151 3.02377 3.87839
LeftLeg  -0.0424395 13.2924 -0.857421
LeftFoot  8.33691 -0.146393 2.13352
LeftToes  -26.355 2.14545e-006 -7.7278e-009
112
root  -10.3488 34.7348 -12.4627 -171.688 5.24417 -179.86
RightUpLeg  -3.42987 -15.5538 -2.4845
RightLeg  0.954963 -3.5804 0.171152
RightFoot  6.64934 0.0478444 -0.245956
RightToes  -26.8703 -0.117119 -0.230798
Spine  -2.59296 0.23229 -0.695526
Spine1  -5.15509 0.394496 -0.519804
HEad  -60.4946 4.8107 9.57332
LeftShoulder1  -1.94126e-019 -3.10601e-018 -2.51263e-017
LeftArm  -8.84762 26.0051 -76.6968
LeftForeArm  31.7032 -20.4409 -3.17201
LeftHand  -0.318955 -0.87628 6.0321
RightShoulder  -4.96962e-017 0 -2.36833e-017
RightArm  -38.9299 -19.8302 63.2956
RightForeArm  163.694 74.2446 144.933
RightHand  0.66386 -8.13476 -27.7414
LeftUpLeg  -3.94487 2.87271 3.91672
LeftLeg  -0.00203189 13.2949 -0.848256
LeftFoot  8.34417 -0.145917 2.13447
LeftToes  -26.3683 2.14545e-006 -7.7278e-009
